<?xml version="1.0" standalone="no"?>
<!DOCTYPE svg PUBLIC "-//W3C//DTD SVG 20010904//EN"
 "http://www.w3.org/TR/2001/REC-SVG-20010904/DTD/svg10.dtd">
<svg version="1.0" xmlns="http://www.w3.org/2000/svg"
 width="1280.000000pt" height="1280.000000pt" viewBox="0 0 1280.000000 1280.000000"
 preserveAspectRatio="xMidYMid meet">
<metadata>
Created by potrace 1.15, written by Peter Selinger 2001-2017
</metadata>
<g transform="translate(0.000000,1280.000000) scale(0.100000,-0.100000)"
fill="#000000" stroke="none">
<path d="M8515 10071 c-115 -25 -175 -47 -241 -89 l-59 -37 -175 1 c-118 0
-229 8 -339 22 -180 24 -360 28 -443 11 -83 -18 -139 -52 -238 -144 -122 -114
-142 -123 -252 -117 -80 4 -87 3 -98 -17 -22 -42 -23 -113 -2 -173 l20 -57
-22 -14 c-12 -8 -35 -39 -51 -68 -28 -50 -30 -62 -30 -154 0 -89 3 -106 28
-156 33 -69 110 -143 165 -159 42 -13 152 -6 152 10 0 4 24 -1 53 -12 73 -28
131 -27 162 2 44 41 34 57 -40 62 -82 5 -119 29 -123 80 -7 77 66 88 181 29
72 -37 89 -30 60 26 -31 60 -82 88 -195 108 -36 6 -38 8 -38 45 0 38 -26 80
-49 80 -5 0 -16 3 -24 6 -18 7 -29 -11 -51 -85 l-16 -53 32 -30 c30 -28 30
-29 7 -24 -13 2 -43 7 -66 10 -42 6 -134 37 -161 55 -28 18 38 112 96 136 17
8 32 19 32 25 0 6 28 24 63 40 49 24 76 30 129 30 58 0 69 3 79 21 18 35 -1
44 -65 31 -49 -10 -65 -8 -138 13 -74 21 -108 43 -108 67 0 4 27 5 59 2 49 -6
65 -3 93 14 42 25 83 38 74 23 -12 -18 61 -13 79 6 41 40 76 -41 57 -131 -6
-28 -14 -63 -18 -78 -6 -25 -4 -28 19 -28 32 0 65 39 98 113 l24 57 50 0 c78
0 187 -19 224 -38 58 -30 60 -43 13 -102 -65 -82 -69 -122 -11 -134 17 -3 37
-12 43 -20 9 -12 34 -13 129 -9 l117 6 0 27 c0 33 -32 64 -85 80 -22 7 -44 16
-49 21 -15 14 41 29 108 29 86 0 107 -25 66 -77 -26 -33 -25 -69 0 -91 21 -17
21 -17 -12 -22 -29 -4 -33 -9 -33 -35 0 -24 7 -33 35 -48 20 -10 50 -17 71
-15 41 4 29 26 144 -267 l71 -180 44 0 c25 0 60 3 77 7 29 7 34 4 48 -22 38
-73 8 -157 -76 -215 -37 -27 -51 -30 -113 -30 -39 0 -86 4 -103 9 l-33 9 0
-45 c0 -31 12 -68 39 -125 52 -108 53 -121 12 -169 l-34 -38 6 -138 c8 -178 6
-190 -54 -236 -40 -31 -52 -49 -74 -108 -32 -88 -103 -197 -186 -288 -76 -83
-233 -216 -255 -216 -9 0 -73 -27 -142 -59 -151 -70 -190 -78 -257 -55 l-49
16 -65 -33 c-56 -29 -76 -34 -136 -34 -56 0 -76 4 -100 21 -30 22 -31 22 -65
3 -51 -27 -133 -25 -198 6 -63 29 -74 30 -135 9 -46 -16 -47 -15 -94 12 -160
91 -146 87 -239 79 -99 -8 -100 -7 -206 92 -38 35 -81 69 -96 74 -22 8 -40 38
-104 172 -83 173 -104 248 -94 330 5 38 4 49 -9 53 -21 8 -45 56 -45 90 0 15
18 72 40 126 33 82 40 112 40 168 0 87 16 129 90 244 43 67 60 102 60 127 0
19 10 54 21 79 19 43 74 110 91 110 4 0 17 10 30 23 13 12 33 29 45 37 17 11
23 27 26 65 l4 50 79 48 c43 26 94 53 112 59 25 10 35 20 43 50 9 35 17 42 89
78 43 22 85 38 92 35 10 -4 12 -29 10 -99 -6 -166 34 -279 137 -386 75 -78
130 -102 241 -108 80 -4 87 -6 120 -38 72 -68 175 -85 243 -39 20 14 37 29 37
34 0 4 28 -19 63 -52 76 -72 131 -99 220 -105 79 -6 248 24 225 40 -8 6 -1 7
22 3 27 -5 32 -4 20 5 -12 9 -9 10 13 5 21 -4 27 -3 21 6 -5 9 -2 10 9 6 9 -3
17 -2 19 2 2 4 32 23 67 42 116 61 197 164 209 265 2 24 1 44 -3 44 -4 0 -38
-29 -76 -65 -126 -119 -316 -192 -476 -182 -113 7 -167 34 -282 141 -133 124
-127 121 -199 97 -121 -41 -229 -37 -337 13 -149 68 -224 220 -181 368 16 56
76 154 148 240 22 27 36 52 33 58 -10 16 -33 12 -44 -9 -6 -10 -56 -56 -113
-102 -57 -46 -118 -99 -136 -116 -19 -20 -43 -33 -58 -33 -36 0 -88 -24 -123
-58 -17 -16 -106 -65 -197 -108 l-166 -79 -32 -70 c-19 -38 -69 -120 -112
-180 -44 -61 -86 -121 -94 -134 l-15 -23 -28 22 c-37 29 -50 58 -77 170 -27
111 -42 144 -103 225 -58 78 -140 142 -310 246 -76 46 -147 92 -158 102 -27
25 -24 62 17 222 25 98 34 154 31 188 -9 104 -89 128 -237 71 l-74 -29 -31
-97 c-16 -53 -33 -99 -37 -103 -4 -4 -70 56 -147 133 -119 120 -151 146 -217
179 -76 37 -81 38 -189 38 -100 0 -115 -2 -161 -27 -62 -33 -107 -76 -137
-132 -29 -55 -31 -193 -3 -245 28 -53 103 -127 191 -191 100 -73 131 -105 240
-254 49 -66 106 -139 127 -162 l39 -43 -12 -61 c-49 -248 134 -569 423 -743
32 -19 55 -36 53 -39 -3 -3 12 -13 33 -23 27 -14 50 -39 82 -89 27 -42 102
-129 182 -210 l137 -139 -31 -28 c-16 -16 -34 -29 -38 -29 -4 0 -34 -42 -65
-92 -32 -51 -86 -131 -120 -178 -82 -111 -94 -137 -149 -315 -25 -82 -61 -199
-80 -260 -52 -168 -88 -339 -93 -450 l-6 -101 -77 -17 c-175 -40 -277 -127
-385 -330 -105 -196 -101 -364 11 -529 56 -83 119 -131 266 -207 64 -33 113
-63 109 -67 -3 -4 -1 -4 6 -1 14 9 45 -2 38 -13 -7 -11 22 -20 42 -13 10 4 14
2 10 -4 -9 -14 48 -37 64 -27 7 4 10 3 5 -4 -8 -13 29 -26 45 -16 7 4 9 3 6
-3 -9 -14 107 -58 124 -47 7 4 10 3 6 -3 -9 -14 436 -176 485 -177 23 0 32 -4
25 -9 -7 -5 0 -7 18 -4 39 7 116 -3 110 -14 -3 -4 21 -11 52 -15 137 -16 212
-61 376 -223 163 -159 405 -418 454 -486 24 -33 62 -77 85 -97 44 -40 157 -92
226 -103 69 -11 83 -37 104 -193 15 -112 -1 -224 -43 -309 -38 -78 -92 -115
-180 -121 -48 -4 -58 -8 -63 -26 -10 -38 -6 -107 8 -135 23 -43 100 -109 143
-120 138 -37 202 -24 424 85 114 57 181 84 204 84 l35 0 0 -50 c0 -48 1 -51
30 -57 17 -3 33 -10 36 -14 13 -21 123 -6 151 21 11 9 29 22 41 29 41 22 47
75 44 373 -2 249 -1 277 13 272 36 -14 109 -204 120 -315 9 -84 -9 -150 -65
-239 -59 -94 -92 -167 -98 -215 -4 -39 -2 -44 29 -66 19 -13 41 -31 51 -41 39
-39 163 -36 246 6 33 17 97 72 178 152 98 97 133 127 159 131 26 4 34 1 39
-13 8 -25 76 -53 104 -43 59 22 114 99 126 176 7 49 -7 257 -35 523 -11 102
-26 252 -35 334 l-15 149 28 24 c22 18 36 23 67 19 29 -3 36 -2 25 5 -10 7 -4
8 20 4 26 -6 32 -4 26 5 -6 9 -4 11 5 5 7 -4 15 -3 19 1 3 5 32 25 65 44 232
138 339 532 209 771 -41 76 -110 145 -213 212 -137 89 -147 108 -181 337 -26
178 -41 231 -83 300 -20 32 -36 62 -36 67 0 5 25 40 54 78 49 61 67 74 164
125 170 88 247 145 378 275 168 168 266 313 308 454 21 71 21 278 1 397 -31
175 -115 381 -227 555 -33 53 -58 81 -80 90 -17 7 -85 57 -150 111 -152 125
-170 137 -363 243 -88 49 -173 96 -188 106 l-29 17 54 24 c144 67 182 152 154
353 -7 51 -5 72 17 140 33 106 41 291 28 655 -9 255 -8 278 9 316 21 49 89
102 160 124 18 6 20 9 7 9 -10 1 -28 -4 -40 -10 -19 -10 -20 -9 -9 2 8 9 48
16 110 20 108 7 164 -5 195 -44 10 -12 15 -15 11 -7 -4 8 8 3 27 -11 18 -14
47 -51 63 -82 32 -63 30 -99 -10 -146 -24 -29 -25 -29 -56 -13 -44 22 -155 19
-210 -6 -58 -26 -78 -51 -84 -108 -9 -72 10 -127 64 -188 59 -66 90 -86 137
-86 32 0 46 8 85 48 40 39 52 61 75 133 20 63 38 98 66 130 51 57 72 123 67
202 -9 149 -132 276 -298 307 -76 14 -193 11 -285 -9z m-955 -221 c14 -4 18
-9 10 -10 -8 0 32 -18 90 -39 183 -65 321 -145 439 -256 69 -64 166 -193 202
-268 54 -115 63 -294 19 -393 -30 -70 -46 -84 -95 -84 l-41 0 -18 58 c-10 31
-58 138 -106 237 -48 99 -105 229 -126 288 -26 76 -44 113 -60 124 -13 8 -58
19 -100 25 -61 8 -107 24 -215 74 -159 74 -249 99 -330 90 -54 -5 -57 -4 -89
29 -19 19 -32 36 -29 39 13 12 70 36 65 27 -4 -7 -1 -8 8 -5 9 3 13 10 10 15
-3 5 1 6 8 4 7 -3 38 3 68 14 30 11 48 20 40 21 -44 5 48 18 130 18 52 0 106
-4 120 -8z m57 -16 c-3 -3 -12 -4 -19 -1 -8 3 -5 6 6 6 11 1 17 -2 13 -5z
m-3574 -65 c51 -14 105 -64 192 -179 80 -105 132 -156 170 -166 14 -3 25 -10
25 -15 0 -5 5 -9 11 -9 5 0 7 5 4 10 -3 6 4 10 15 10 29 0 74 33 98 73 11 17
32 69 47 115 28 88 65 142 96 142 30 0 24 -44 -18 -118 l-38 -67 3 -224 c3
-249 -1 -274 -53 -320 -88 -77 -254 -79 -353 -4 -28 21 -196 212 -241 274 -7
11 -58 58 -113 105 -139 120 -177 184 -157 260 9 30 19 40 65 61 31 14 88 31
127 38 57 10 66 13 42 17 -29 5 -29 5 5 6 19 1 52 -3 73 -9z m919 -697 c90
-59 204 -180 235 -249 73 -158 36 -307 -112 -457 -130 -132 -288 -215 -378
-201 -173 26 -405 340 -410 554 l-2 65 41 10 c23 6 48 16 55 22 8 6 39 19 69
28 113 36 222 122 287 228 20 32 40 58 45 58 5 0 6 5 3 10 -3 6 -3 15 0 20 7
12 56 -14 167 -88z m1867 -441 c8 -5 9 -11 3 -15 -5 -3 -15 1 -22 9 -14 16 -3
20 19 6z m-1521 -1472 c72 -12 73 -13 67 -38 -12 -52 -79 -221 -175 -446 -54
-126 -108 -258 -120 -292 -17 -48 -27 -63 -42 -63 -30 0 -351 40 -367 45 -17
7 -7 63 20 117 18 35 23 38 63 38 23 0 64 -6 90 -14 44 -13 48 -13 66 6 67 72
235 502 209 534 -14 17 -61 31 -131 39 -60 7 -69 16 -45 48 33 46 181 56 365
26z m-333 -201 c-8 -27 -69 -221 -91 -290 -15 -46 -17 -48 -54 -48 -65 0 -101
11 -96 29 3 9 21 69 41 133 34 112 37 119 73 137 20 10 48 28 61 40 13 12 35
21 48 21 21 0 23 -4 18 -22z m664 -103 c327 -55 724 -144 1071 -238 98 -27
185 -45 215 -45 28 0 63 -4 78 -11 27 -11 28 -14 22 -54 -11 -65 -39 -132 -79
-186 -38 -51 -145 -131 -176 -131 -9 0 -145 31 -301 69 -372 91 -778 181
-1013 226 -105 20 -191 37 -193 39 -2 1 6 36 16 77 20 78 56 167 96 235 21 37
28 40 68 42 25 2 113 -9 196 -23z m2374 -80 c216 -56 320 -211 320 -475 0 -86
-4 -116 -23 -164 -40 -105 -129 -174 -273 -214 -117 -31 -457 -18 -457 18 0 5
20 32 44 60 49 57 66 108 66 197 0 110 -46 228 -152 392 -47 73 -59 98 -51
110 12 19 147 67 224 80 88 14 239 12 302 -4z m-808 -61 c33 -8 80 -27 104
-42 24 -15 58 -36 76 -47 47 -28 103 -99 139 -175 29 -61 31 -72 31 -180 0
-107 -2 -118 -27 -160 -80 -137 -285 -244 -468 -245 -64 0 -94 5 -120 19 -64
34 -120 99 -120 140 0 22 44 70 140 154 171 149 233 297 173 414 -15 31 -47
50 -113 68 l-45 12 30 16 c28 15 107 40 130 41 6 1 38 -6 70 -15z m-2330 -738
c307 -8 622 -47 1077 -136 1172 -226 1950 -435 2351 -630 45 -22 93 -42 106
-45 55 -10 216 -126 265 -190 76 -99 103 -232 72 -355 -20 -82 -74 -190 -129
-259 -35 -44 -54 -58 -115 -82 -89 -35 -125 -37 -146 -7 -16 22 -21 102 -10
144 7 27 47 21 87 -12 60 -50 107 -44 107 13 -1 97 -63 163 -240 252 -319 162
-834 325 -1725 546 -640 158 -1062 239 -1545 296 -259 31 -627 33 -714 5 -70
-23 -140 -73 -144 -103 -3 -19 4 -23 55 -34 32 -6 63 -19 70 -27 10 -12 29
-14 100 -8 252 19 309 19 366 1 51 -16 62 -25 127 -106 87 -108 203 -218 365
-349 138 -112 150 -124 108 -114 -53 11 -298 96 -553 191 -431 160 -527 210
-610 318 -67 88 -89 181 -70 302 27 169 142 307 315 377 50 21 71 24 149 20
50 -2 177 -6 281 -8z m3385 -2119 c0 -42 -37 -96 -97 -140 -73 -53 -101 -64
-280 -117 l-165 -48 -20 44 c-11 25 -18 50 -16 55 2 6 91 50 198 98 253 114
319 140 353 141 24 0 27 -4 27 -33z m-1215 -67 c22 -15 70 -62 107 -103 l67
-75 -32 -6 c-36 -6 -343 -46 -357 -46 -8 0 -64 160 -58 165 2 2 29 19 61 40
114 72 139 75 212 25z m-345 -749 c0 -14 -25 -31 -59 -41 -38 -11 -32 3 13 31
34 21 46 24 46 10z m987 -178 c-21 -22 -32 -11 -17 17 9 16 15 19 23 11 8 -8
7 -16 -6 -28z"/>
<path d="M7527 9162 c-41 -45 -47 -112 -14 -146 l24 -24 -96 -4 c-95 -4 -155
-22 -205 -60 -28 -22 -15 -57 44 -121 73 -80 186 -119 275 -95 35 10 52 9 80
-1 29 -10 39 -10 62 2 16 8 53 27 83 42 62 30 95 58 116 98 28 53 -3 61 -77
20 l-48 -28 -38 44 c-35 42 -119 91 -154 91 -12 0 -5 12 22 39 34 34 39 45 39
84 0 36 -5 49 -22 61 -30 21 -71 20 -91 -2z"/>
</g>
</svg>
